<svg width="245" height="76" viewBox="0 0 245 76" fill="none" xmlns="http://www.w3.org/2000/svg">
<mask id="mask0_16_79" style="mask-type:luminance" maskUnits="userSpaceOnUse" x="0" y="0" width="113" height="76">
<path d="M112.054 0H0V76H112.054V0Z" fill="white"/>
</mask>
<g mask="url(#mask0_16_79)">
<path d="M18.9922 28.7913L106.405 51.9922C109.735 52.876 112.054 55.8912 112.054 59.3379V76H93.062V68.1068L56.029 58.2785L18.9922 68.1068V76H0V59.3379C8.6224e-06 55.8912 2.3193 52.876 5.64945 51.9922L18.9941 48.4481L5.64945 44.9078C2.31926 44.0241 5.74643e-05 41.0088 0 37.5621V26.6C0 22.4027 3.40125 19 7.5969 19H18.9922V28.7913Z" fill="#1BA09C"/>
<path d="M104.457 19C108.653 19 112.054 22.4027 112.054 26.6V38H93.062V19H104.457Z" fill="#1BA09C"/>
<path d="M85.4651 0C89.6607 0 93.062 3.40263 93.062 7.6V19H18.9922V7.6C18.9922 3.40263 22.3936 5.35545e-08 26.5891 0H85.4651Z" fill="#1BA09C"/>
</g>
<path d="M143.036 41.8V16.9273H152.845C154.722 16.9273 156.325 17.2633 157.652 17.9353C158.987 18.5992 160.003 19.5424 160.699 20.7651C161.403 21.9796 161.755 23.4086 161.755 25.0523C161.755 26.7039 161.399 28.1249 160.687 29.3151C159.975 30.4971 158.943 31.404 157.591 32.0355C156.248 32.6671 154.621 32.9829 152.711 32.9829H146.143V28.7563H151.861C152.865 28.7563 153.698 28.6187 154.362 28.3434C155.026 28.0681 155.519 27.6553 155.843 27.1046C156.175 26.5542 156.341 25.87 156.341 25.0523C156.341 24.2263 156.175 23.53 155.843 22.9632C155.519 22.3964 155.022 21.9674 154.35 21.676C153.686 21.3763 152.849 21.2266 151.837 21.2266H148.292V41.8H143.036ZM156.462 30.4809L162.641 41.8H156.839L150.793 30.4809H156.462ZM170.69 42.1523C169.5 42.1523 168.44 41.9457 167.51 41.5329C166.579 41.1118 165.842 40.4924 165.3 39.6747C164.766 38.8487 164.499 37.8204 164.499 36.5898C164.499 35.5536 164.689 34.6832 165.07 33.9786C165.45 33.2743 165.968 32.7075 166.623 32.2783C167.279 31.8493 168.023 31.5254 168.857 31.3069C169.699 31.0882 170.581 30.9343 171.504 30.8454C172.588 30.7319 173.462 30.6267 174.126 30.5296C174.789 30.4243 175.271 30.2704 175.571 30.0681C175.87 29.8655 176.02 29.5661 176.02 29.1694V29.0964C176.02 28.3273 175.777 27.7322 175.291 27.3112C174.814 26.8901 174.134 26.6796 173.252 26.6796C172.321 26.6796 171.581 26.8861 171.03 27.299C170.48 27.7039 170.116 28.2139 169.938 28.8293L165.154 28.4407C165.397 27.3072 165.875 26.3273 166.587 25.5016C167.299 24.6677 168.218 24.028 169.343 23.5826C170.476 23.1293 171.787 22.9026 173.276 22.9026C174.312 22.9026 175.303 23.024 176.25 23.2668C177.205 23.5098 178.051 23.8862 178.788 24.3964C179.532 24.9065 180.119 25.5622 180.548 26.3638C180.977 27.1573 181.191 28.1086 181.191 29.2178V41.8H176.287V39.2131H176.141C175.842 39.7961 175.441 40.3102 174.939 40.7556C174.438 41.1928 173.835 41.5368 173.13 41.7878C172.426 42.0307 171.613 42.1523 170.69 42.1523ZM172.171 38.5816C172.932 38.5816 173.604 38.4319 174.187 38.1322C174.769 37.8246 175.227 37.4116 175.558 36.8934C175.89 36.3753 176.056 35.7882 176.056 35.1325V33.1529C175.894 33.2582 175.672 33.3553 175.388 33.4444C175.113 33.5253 174.802 33.6023 174.454 33.675C174.106 33.7398 173.758 33.8006 173.41 33.8572C173.062 33.9059 172.746 33.9503 172.463 33.9908C171.856 34.0799 171.326 34.2217 170.872 34.4158C170.419 34.6102 170.067 34.8734 169.816 35.2053C169.565 35.5292 169.44 35.9339 169.44 36.4198C169.44 37.1243 169.695 37.6626 170.205 38.0351C170.723 38.3994 171.378 38.5816 172.171 38.5816ZM185.204 48.7954V23.1454H190.302V26.2789H190.532C190.76 25.7769 191.087 25.2668 191.516 24.7486C191.953 24.2223 192.521 23.7851 193.216 23.4369C193.92 23.0806 194.794 22.9026 195.839 22.9026C197.198 22.9026 198.452 23.2588 199.601 23.9713C200.75 24.6757 201.669 25.7404 202.357 27.1654C203.046 28.5823 203.39 30.3595 203.39 32.497C203.39 34.5779 203.054 36.3348 202.381 37.7678C201.719 39.1928 200.811 40.2737 199.662 41.0105C198.52 41.7392 197.242 42.1036 195.825 42.1036C194.822 42.1036 193.968 41.9376 193.265 41.6056C192.568 41.2737 191.998 40.8568 191.552 40.3547C191.108 39.8447 190.768 39.3306 190.532 38.8124H190.374V48.7954H185.204ZM190.266 32.4727C190.266 33.5819 190.42 34.5494 190.728 35.3753C191.035 36.2013 191.48 36.8448 192.063 37.3063C192.646 37.7598 193.354 37.9865 194.186 37.9865C195.029 37.9865 195.742 37.7557 196.323 37.2943C196.906 36.8247 197.348 36.177 197.647 35.351C197.954 34.5171 198.108 33.5576 198.108 32.4727C198.108 31.3958 197.958 30.4486 197.66 29.6309C197.36 28.8131 196.919 28.1734 196.336 27.7119C195.753 27.2504 195.037 27.0197 194.186 27.0197C193.345 27.0197 192.633 27.2424 192.05 27.6876C191.476 28.1329 191.035 28.7645 190.728 29.5822C190.42 30.4 190.266 31.3635 190.266 32.4727ZM206.837 41.8V23.1454H212.009V41.8H206.837ZM209.435 20.7408C208.666 20.7408 208.007 20.4858 207.456 19.9756C206.913 19.4575 206.643 18.8381 206.643 18.1175C206.643 17.405 206.913 16.7937 207.456 16.2836C208.007 15.7654 208.666 15.5063 209.435 15.5063C210.204 15.5063 210.86 15.7654 211.401 16.2836C211.952 16.7937 212.227 17.405 212.227 18.1175C212.227 18.8381 211.952 19.4575 211.401 19.9756C210.86 20.4858 210.204 20.7408 209.435 20.7408ZM216.151 41.8V23.1454H221.322V41.8H216.151ZM218.749 20.7408C217.98 20.7408 217.321 20.4858 216.77 19.9756C216.229 19.4575 215.957 18.8381 215.957 18.1175C215.957 17.405 216.229 16.7937 216.77 16.2836C217.321 15.7654 217.98 15.5063 218.749 15.5063C219.518 15.5063 220.173 15.7654 220.716 16.2836C221.265 16.7937 221.541 17.405 221.541 18.1175C221.541 18.8381 221.265 19.4575 220.716 19.9756C220.173 20.4858 219.518 20.7408 218.749 20.7408ZM230.638 31.0154V41.8H225.466V23.1454H230.395V26.4368H230.613C231.026 25.3517 231.717 24.4935 232.689 23.8619C233.66 23.2224 234.837 22.9026 236.222 22.9026C237.517 22.9026 238.645 23.1859 239.608 23.7527C240.571 24.3194 241.321 25.1292 241.855 26.1816C242.389 27.226 242.656 28.473 242.656 29.9223V41.8H237.485V30.8454C237.492 29.7036 237.202 28.8131 236.609 28.1734C236.019 27.5257 235.206 27.2019 234.171 27.2019C233.474 27.2019 232.858 27.3516 232.325 27.6513C231.798 27.9507 231.386 28.3881 231.086 28.9628C230.796 29.5296 230.646 30.2138 230.638 31.0154Z" fill="black"/>
<path d="M142.001 64.6V53.5454H143.615V57.6532H143.712C143.805 57.4803 143.94 57.2806 144.116 57.0539C144.293 56.8273 144.537 56.6293 144.85 56.4602C145.163 56.2875 145.577 56.201 146.091 56.201C146.76 56.201 147.357 56.3703 147.883 56.7085C148.408 57.0467 148.82 57.5343 149.118 58.1713C149.42 58.8082 149.571 59.5747 149.571 60.4707C149.571 61.3668 149.422 62.1351 149.123 62.7756C148.825 63.4125 148.415 63.9036 147.893 64.2491C147.372 64.5911 146.776 64.7619 146.107 64.7619C145.604 64.7619 145.192 64.6773 144.872 64.5082C144.555 64.3391 144.307 64.1411 144.127 63.9145C143.947 63.6878 143.809 63.4862 143.712 63.3099H143.577V64.6H142.001ZM143.582 60.4546C143.582 61.0375 143.667 61.5484 143.836 61.9875C144.005 62.4266 144.25 62.7701 144.57 63.0184C144.89 63.2631 145.282 63.3855 145.746 63.3855C146.228 63.3855 146.631 63.2578 146.955 63.0023C147.278 62.7431 147.523 62.3924 147.688 61.9497C147.857 61.5072 147.942 61.0086 147.942 60.4546C147.942 59.9076 147.859 59.4164 147.694 58.9809C147.532 58.5454 147.287 58.2019 146.96 57.95C146.636 57.698 146.232 57.5721 145.746 57.5721C145.278 57.5721 144.883 57.6927 144.559 57.9338C144.239 58.175 143.996 58.5114 143.831 58.9431C143.665 59.375 143.582 59.8789 143.582 60.4546ZM152.121 67.7091C151.88 67.7091 151.66 67.6892 151.462 67.6497C151.265 67.6138 151.117 67.5741 151.02 67.5309L151.408 66.2085C151.703 66.2878 151.966 66.322 152.196 66.3111C152.426 66.3003 152.63 66.2138 152.806 66.052C152.986 65.8901 153.144 65.6256 153.281 65.2585L153.48 64.7079L150.448 56.3091H152.175L154.274 62.7431H154.36L156.459 56.3091H158.191L154.775 65.7066C154.617 66.1384 154.416 66.5036 154.171 66.8023C153.926 67.1046 153.635 67.3312 153.297 67.4823C152.959 67.6335 152.567 67.7091 152.121 67.7091ZM167.596 56.3091V57.6046H163.07V56.3091H167.596ZM164.284 54.3227H165.897V62.1657C165.897 62.4786 165.944 62.7144 166.037 62.8727C166.131 63.0274 166.251 63.1336 166.399 63.1911C166.55 63.2451 166.713 63.2721 166.89 63.2721C167.019 63.2721 167.133 63.2631 167.23 63.2451C167.327 63.2272 167.402 63.2128 167.456 63.202L167.747 64.5352C167.654 64.5711 167.521 64.6072 167.348 64.6431C167.176 64.6828 166.96 64.7043 166.701 64.7079C166.276 64.7151 165.881 64.6395 165.514 64.4812C165.147 64.323 164.85 64.0783 164.623 63.7471C164.397 63.4161 164.284 63.0004 164.284 62.5003V54.3227ZM172.864 64.7674C172.047 64.7674 171.344 64.5928 170.754 64.2437C170.168 63.8911 169.715 63.3963 169.394 62.7593C169.078 62.1188 168.92 61.3685 168.92 60.5085C168.92 59.6592 169.078 58.9108 169.394 58.2631C169.715 57.6154 170.161 57.1098 170.733 56.7463C171.308 56.3829 171.981 56.201 172.751 56.201C173.218 56.201 173.671 56.2786 174.11 56.4332C174.549 56.5879 174.943 56.8309 175.292 57.1619C175.641 57.493 175.916 57.923 176.117 58.452C176.319 58.9773 176.42 59.6161 176.42 60.3681V60.9404H169.832V59.7312H174.839C174.839 59.3066 174.752 58.9306 174.58 58.6032C174.407 58.272 174.164 58.0112 173.851 57.8204C173.542 57.6297 173.179 57.5343 172.761 57.5343C172.308 57.5343 171.912 57.646 171.574 57.869C171.24 58.0885 170.981 58.3763 170.797 58.7326C170.617 59.0852 170.528 59.4685 170.528 59.8823V60.827C170.528 61.3812 170.625 61.8526 170.819 62.2411C171.017 62.6299 171.292 62.9267 171.645 63.1319C171.997 63.3333 172.409 63.4341 172.88 63.4341C173.186 63.4341 173.465 63.3908 173.716 63.3046C173.968 63.2145 174.186 63.0815 174.369 62.9052C174.553 62.7289 174.693 62.5111 174.79 62.252L176.317 62.5273C176.195 62.977 175.975 63.3711 175.659 63.7093C175.346 64.044 174.952 64.3049 174.477 64.4921C174.006 64.6756 173.468 64.7674 172.864 64.7674ZM181.7 64.7674C180.898 64.7674 180.208 64.5856 179.628 64.2221C179.053 63.8552 178.61 63.3496 178.301 62.7053C177.992 62.0612 177.837 61.3236 177.837 60.4924C177.837 59.6503 177.996 58.9072 178.312 58.2631C178.629 57.6154 179.074 57.1098 179.65 56.7463C180.226 56.3829 180.904 56.201 181.684 56.201C182.314 56.201 182.875 56.3181 183.368 56.552C183.86 56.7822 184.258 57.1062 184.56 57.5236C184.866 57.9411 185.047 58.4286 185.105 58.9864H183.535C183.449 58.5977 183.251 58.2631 182.941 57.9823C182.636 57.7017 182.225 57.5614 181.711 57.5614C181.261 57.5614 180.868 57.6802 180.529 57.9177C180.195 58.1516 179.934 58.4862 179.747 58.9216C179.56 59.3533 179.467 59.8644 179.467 60.4546C179.467 61.0591 179.558 61.5809 179.742 62.0198C179.925 62.4589 180.184 62.799 180.519 63.0401C180.857 63.2812 181.254 63.4017 181.711 63.4017C182.017 63.4017 182.294 63.346 182.542 63.2343C182.794 63.1191 183.004 62.9555 183.173 62.7431C183.346 62.5309 183.466 62.2753 183.535 61.9767H185.105C185.047 62.5128 184.873 62.9914 184.582 63.4125C184.29 63.8335 183.9 64.1645 183.411 64.4056C182.925 64.6467 182.355 64.7674 181.7 64.7674ZM188.443 59.6773V64.6H186.83V53.5454H188.422V57.6585H188.524C188.719 57.2122 189.015 56.8579 189.415 56.5951C189.814 56.3325 190.335 56.201 190.978 56.201C191.548 56.201 192.044 56.3181 192.469 56.552C192.897 56.7859 193.227 57.1349 193.461 57.5991C193.698 58.0598 193.818 58.6355 193.818 59.3263V64.6H192.203V59.5207C192.203 58.9125 192.048 58.4411 191.734 58.1065C191.421 57.7683 190.986 57.5991 190.43 57.5991C190.048 57.5991 189.706 57.6802 189.404 57.8421C189.105 58.0039 188.87 58.2414 188.697 58.5546C188.528 58.8641 188.443 59.2382 188.443 59.6773ZM198.382 64.7835C197.857 64.7835 197.383 64.6864 196.957 64.4921C196.534 64.2941 196.197 64.0079 195.949 63.6338C195.704 63.2595 195.582 62.8007 195.582 62.2573C195.582 61.7895 195.671 61.4046 195.852 61.1023C196.032 60.8 196.273 60.5608 196.579 60.3843C196.885 60.2079 197.227 60.0749 197.605 59.9849C197.983 59.895 198.368 59.8266 198.76 59.7799C199.255 59.7223 199.66 59.6754 199.967 59.6395C200.277 59.5999 200.503 59.5369 200.644 59.4506C200.782 59.3642 200.852 59.2239 200.852 59.0296V58.9918C200.852 58.5204 200.72 58.1552 200.454 57.896C200.192 57.6369 199.798 57.5073 199.278 57.5073C198.735 57.5073 198.306 57.6279 197.994 57.869C197.685 58.1065 197.47 58.371 197.352 58.6625L195.835 58.3171C196.015 57.8132 196.277 57.4066 196.623 57.0971C196.972 56.7841 197.373 56.5573 197.827 56.4171C198.279 56.273 198.756 56.201 199.255 56.201C199.588 56.201 199.937 56.2407 200.307 56.3198C200.682 56.3954 201.031 56.5358 201.356 56.7408C201.682 56.946 201.95 57.2392 202.159 57.6207C202.368 57.9986 202.473 58.4898 202.473 59.0944V64.6H200.896V63.4664H200.832C200.727 63.6753 200.571 63.8803 200.362 64.0819C200.154 64.2833 199.886 64.4507 199.559 64.5838C199.231 64.717 198.839 64.7835 198.382 64.7835ZM198.733 63.4881C199.179 63.4881 199.559 63.3999 199.876 63.2236C200.197 63.0473 200.44 62.817 200.606 62.5326C200.775 62.2447 200.858 61.9371 200.858 61.6096V60.5408C200.801 60.5984 200.689 60.6524 200.524 60.7029C200.362 60.7496 200.176 60.7911 199.967 60.827C199.76 60.8593 199.557 60.8899 199.358 60.9187C199.16 60.944 198.995 60.9655 198.862 60.9835C198.549 61.023 198.264 61.0897 198.004 61.1832C197.749 61.2767 197.544 61.4118 197.388 61.5881C197.238 61.7608 197.162 61.9911 197.162 62.2789C197.162 62.6783 197.31 62.9806 197.605 63.1858C197.899 63.3872 198.275 63.4881 198.733 63.4881ZM207.724 64.7619C207.053 64.7619 206.457 64.5911 205.931 64.2491C205.411 63.9036 205 63.4125 204.702 62.7756C204.406 62.1351 204.26 61.3668 204.26 60.4707C204.26 59.5747 204.408 58.8082 204.706 58.1713C205.01 57.5343 205.422 57.0467 205.948 56.7085C206.472 56.3703 207.069 56.201 207.733 56.201C208.248 56.201 208.662 56.2875 208.975 56.4602C209.291 56.6293 209.536 56.8273 209.709 57.0539C209.885 57.2806 210.022 57.4803 210.119 57.6532H210.216V53.5454H211.828V64.6H210.254V63.3099H210.119C210.022 63.4862 209.881 63.6878 209.697 63.9145C209.519 64.1411 209.27 64.3391 208.953 64.5082C208.637 64.6773 208.227 64.7619 207.724 64.7619ZM208.079 63.3855C208.542 63.3855 208.936 63.2631 209.255 63.0184C209.579 62.7701 209.824 62.4266 209.99 61.9875C210.159 61.5484 210.242 61.0375 210.242 60.4546C210.242 59.8789 210.161 59.375 209.995 58.9431C209.828 58.5114 209.587 58.175 209.266 57.9338C208.945 57.6927 208.55 57.5721 208.079 57.5721C207.593 57.5721 207.188 57.698 206.865 57.95C206.541 58.2019 206.298 58.5454 206.13 58.9809C205.969 59.4164 205.889 59.9076 205.889 60.4546C205.889 61.0086 205.971 61.5072 206.136 61.9497C206.301 62.3924 206.546 62.7431 206.871 63.0023C207.198 63.2578 207.6 63.3855 208.079 63.3855ZM217.702 64.7674C216.888 64.7674 216.183 64.5928 215.594 64.2437C215.007 63.8911 214.554 63.3963 214.234 62.7593C213.917 62.1188 213.76 61.3685 213.76 60.5085C213.76 59.6592 213.917 58.9108 214.234 58.2631C214.554 57.6154 215 57.1098 215.571 56.7463C216.147 56.3829 216.821 56.201 217.59 56.201C218.058 56.201 218.511 56.2786 218.95 56.4332C219.389 56.5879 219.782 56.8309 220.132 57.1619C220.481 57.493 220.754 57.923 220.958 58.452C221.159 58.9773 221.26 59.6161 221.26 60.3681V60.9404H214.671V59.7312H219.678C219.678 59.3066 219.592 58.9306 219.419 58.6032C219.246 58.272 219.003 58.0112 218.69 57.8204C218.38 57.6297 218.018 57.5343 217.602 57.5343C217.148 57.5343 216.753 57.646 216.415 57.869C216.079 58.0885 215.82 58.3763 215.636 58.7326C215.458 59.0852 215.366 59.4685 215.366 59.8823V60.827C215.366 61.3812 215.465 61.8526 215.659 62.2411C215.856 62.6299 216.132 62.9267 216.483 63.1319C216.836 63.3333 217.249 63.4341 217.72 63.4341C218.025 63.4341 218.304 63.3908 218.555 63.3046C218.808 63.2145 219.026 63.0815 219.209 62.9052C219.393 62.7289 219.533 62.5111 219.63 62.252L221.157 62.5273C221.034 62.977 220.815 63.3711 220.498 63.7093C220.185 64.044 219.792 64.3049 219.317 64.4921C218.846 64.6756 218.308 64.7674 217.702 64.7674Z" fill="#AAACAC"/>
</svg>
